<svg width="472" height="401" viewBox="0 0 472 401" fill="none" xmlns="http://www.w3.org/2000/svg">
<path d="M458.148 47.8252L470 43.5821V53.7655V62.2516L469.153 66.4947L465.767 67.3433H463.227L458.148 62.2516H453.069H449.682L444.603 63.9488L440.37 67.3433L438.677 72.435V76.678L440.37 80.0725V86.8614L438.677 91.1045L436.137 97.0448L431.904 100.439L426.825 104.682L417.513 109.774L412.433 113.168L406.507 115.714L403.121 119.957L400.581 124.2L403.121 129.292L406.507 136.93H395.502L388.729 138.627L386.189 142.021L380.264 146.264L370.951 154.751L358.253 164.085L355.713 168.328L354.02 175.117L350.634 180.209L345.554 184.452L341.321 190.392L345.554 198.03L343.014 203.97L339.628 210.759L336.242 218.397L333.702 226.034L327.776 235.369L323.543 240.461L315.078 248.098L305.765 254.038L301.532 259.979L299.839 268.465L298.146 274.405L296.453 281.194L294.76 287.134L290.527 291.377L286.294 294.772L281.215 299.864L275.289 305.804L270.209 311.744L265.13 317.684L260.897 324.473L254.971 330.414L252.431 337.203L251.585 343.991L252.431 351.629L249.892 355.872L247.352 360.115L243.966 366.904L240.579 373.693L237.193 379.633L232.96 383.876L224.495 385.574L218.569 383.876L212.643 381.33L210.103 383.876L204.177 382.179L195.711 377.936L184.706 373.693L178.78 368.601H171.161L168.621 370.298L166.081 375.39H161.002L155.076 371.996H146.61L139.838 366.904L132.218 361.812L124.599 357.569L118.673 354.175H110.208L105.975 355.872H100.895L97.509 359.267L89.0433 360.115L78.8845 359.267L74.6516 361.812L67.8791 360.115H61.1065L50.9476 355.872L32.3231 345.689L19.6245 338.9L4.38628 337.203L6.07941 329.565V315.139V304.955V297.318L8.61911 288.832L10.3123 283.74L12.852 277.8L15.3917 272.708L20.4711 266.768L24.704 262.525L29.7834 260.827L34.8628 263.373L38.2491 266.768L41.6354 263.373L47.5614 256.584L50.9476 248.098L53.4873 237.915L59.4133 226.034L66.1859 215.002L72.1119 210.759L83.9639 203.97L97.509 198.03L100.895 193.787L108.514 183.603L105.128 177.663L100.049 170.026L97.509 163.237H100.895L106.821 164.934L111.901 163.237L119.52 161.539L130.525 158.145L144.07 154.751L156.769 151.356L166.081 142.021L177.087 131.838L183.859 124.2L190.632 119.957L198.251 113.168L202.484 107.228L206.717 97.0448V90.2559V72.435V62.2516L204.177 55.4627V46.1279L201.637 36.7932L196.558 28.307L207.563 29.1556L214.336 34.2473L221.955 40.1876H230.421L238.886 43.5821L248.199 46.1279L260.05 43.5821H271.903H282.061H293.913L304.919 46.1279L316.771 40.1876L328.623 47.8252H338.782L355.713 46.1279L367.565 43.5821L374.337 40.1876L377.724 32.5501L379.417 21.5181V12.1834L387.883 5.39446L393.809 2L400.581 7.9403L408.2 18.1237L412.433 26.6098L417.513 34.2473L424.285 40.1876L438.677 47.8252H458.148Z" fill="#30435C"/>
<path d="M4.38628 337.203L6.07941 329.565V315.139V304.955V297.318L8.61911 288.832L10.3123 283.74L12.852 277.8L15.3917 272.708L20.4711 266.768L24.704 262.525L29.7834 260.827L34.8628 263.373L38.2491 266.768L41.6354 263.373L47.5614 256.584L50.9476 248.098L53.4873 237.915L59.4133 226.034L66.1859 215.002L72.1119 210.759L83.9639 203.97L97.509 198.03L100.895 193.787L108.514 183.603L105.128 177.663L100.049 170.026L97.509 163.237H100.895L106.821 164.934L111.901 163.237L119.52 161.539L130.525 158.145L144.07 154.751L156.769 151.356L166.081 142.021L177.087 131.838L183.859 124.2L190.632 119.957L198.251 113.168L202.484 107.228L206.717 97.0448V90.2559V72.435V62.2516L204.177 55.4627V46.1279L201.637 36.7932L196.558 28.307L207.563 29.1556L214.336 34.2473L221.955 40.1876H230.421L238.886 43.5821L248.199 46.1279L260.05 43.5821H271.903H282.061H293.913L304.919 46.1279L316.771 40.1876L328.623 47.8252H338.782L355.713 46.1279L367.565 43.5821L374.338 40.1876L377.724 32.5501L379.417 21.5181V12.1834L387.883 5.39446L393.809 2L400.581 7.9403L408.2 18.1237L412.433 26.6098L417.513 34.2473L424.285 40.1876L438.677 47.8252H458.148L470 43.5821V53.7655V62.2516L469.153 66.4947L465.767 67.3433H463.227L458.148 62.2516H453.069H449.682L444.603 63.9488L440.37 67.3433L438.677 72.435V76.678L440.37 80.0725V86.8614L438.677 91.1045L436.137 97.0448L431.904 100.439L426.825 104.682L417.513 109.774L412.433 113.168L406.507 115.714L403.121 119.957L400.581 124.2L403.121 129.292L406.507 136.93H395.502L388.729 138.627L386.189 142.021L380.264 146.264L370.951 154.751L358.253 164.085L355.713 168.328L354.02 175.117L350.634 180.209L345.554 184.452L341.321 190.392L345.554 198.03L343.014 203.97L339.628 210.759L336.242 218.397L333.702 226.034L327.776 235.369L323.543 240.461L315.078 248.098L305.765 254.038L301.532 259.979L299.839 268.465L298.146 274.405L296.453 281.194L294.76 287.134L290.527 291.377L286.294 294.772L281.215 299.864L275.289 305.804L270.209 311.744L265.13 317.684L260.897 324.473L254.971 330.414L252.431 337.203L251.585 343.991L252.431 351.629L249.892 355.872L247.352 360.115L243.966 366.904L240.579 373.693L237.193 379.633L232.96 383.876L224.495 385.574L218.569 383.876L212.643 381.33L210.103 383.876L204.177 382.179L195.711 377.936L184.706 373.693L178.78 368.601H171.161L168.621 370.298L166.081 375.39H161.002L155.076 371.996H146.61L139.838 366.904L132.218 361.812L124.599 357.569L118.673 354.175H110.208L105.975 355.872H100.895L97.509 359.267L89.0433 360.115L78.8844 359.267L74.6516 361.812L67.8791 360.115H61.1065L50.9476 355.872L32.3231 345.689L19.6245 338.9L4.38628 337.203ZM4.38628 337.203L1 338.9M212.643 400L215.182 394.06L218.569 385.574" stroke="#F4F4F4" stroke-width="3"/>
</svg>
