<svg width="1248" height="51" viewBox="0 0 1248 51" fill="none" xmlns="http://www.w3.org/2000/svg">
<path d="M66.62 27.982V16.624C67.652 16.468 68.672 16.39 69.68 16.39C71.108 16.39 72.158 16.726 72.83 17.398C73.37 17.938 73.64 18.652 73.64 19.54C73.64 20.128 73.436 20.65 73.028 21.106C72.632 21.562 72.14 21.832 71.552 21.916V21.934C72.296 22.042 72.884 22.366 73.316 22.906C73.76 23.434 73.982 24.112 73.982 24.94C73.982 26.02 73.544 26.854 72.668 27.442C71.912 27.958 70.916 28.216 69.68 28.216C68.576 28.216 67.556 28.138 66.62 27.982ZM68.294 17.848V21.286H69.986C70.586 21.286 71.06 21.148 71.408 20.872C71.768 20.584 71.948 20.2 71.948 19.72C71.948 18.388 71.186 17.722 69.662 17.722C69.11 17.722 68.654 17.764 68.294 17.848ZM68.294 22.654V26.758C68.714 26.842 69.248 26.884 69.896 26.884C71.444 26.884 72.218 26.23 72.218 24.922C72.218 24.202 72.02 23.644 71.624 23.248C71.228 22.852 70.67 22.654 69.95 22.654H68.294ZM83.2309 24.436H77.4709C77.5549 25.228 77.8429 25.858 78.3349 26.326C78.8269 26.782 79.4569 27.01 80.2249 27.01C80.9689 27.01 81.7249 26.782 82.4929 26.326L82.9609 27.208C82.1209 27.88 81.1249 28.216 79.9729 28.216C78.6529 28.216 77.6029 27.802 76.8229 26.974C76.1029 26.206 75.7429 25.198 75.7429 23.95C75.7429 22.678 76.1329 21.616 76.9129 20.764C77.6209 19.996 78.4909 19.612 79.5229 19.612C80.7829 19.612 81.7489 20.086 82.4209 21.034C82.9609 21.79 83.2309 22.744 83.2309 23.896V24.436ZM77.4169 23.23H81.6469C81.6229 22.45 81.4249 21.85 81.0529 21.43C80.6929 20.998 80.2009 20.782 79.5769 20.782C78.9769 20.782 78.4789 21.004 78.0829 21.448C77.6989 21.892 77.4769 22.486 77.4169 23.23ZM87.0778 19.828V28H85.5298V19.828H87.0778ZM85.4038 17.308C85.4038 17.056 85.4938 16.84 85.6738 16.66C85.8538 16.48 86.0698 16.39 86.3218 16.39C86.5738 16.39 86.7898 16.48 86.9698 16.66C87.1618 16.84 87.2578 17.056 87.2578 17.308C87.2578 17.572 87.1678 17.794 86.9878 17.974C86.8078 18.154 86.5858 18.244 86.3218 18.244C86.0578 18.244 85.8358 18.154 85.6558 17.974C85.4878 17.794 85.4038 17.572 85.4038 17.308ZM91.3995 20.638H91.4715C92.0355 19.954 92.6955 19.612 93.4515 19.612C94.4115 19.612 95.1195 19.984 95.5755 20.728L94.2795 21.538C93.8835 21.142 93.4515 20.944 92.9835 20.944C92.3835 20.944 91.8795 21.25 91.4715 21.862V28H89.9235V19.828H91.2555L91.3995 20.638ZM102.246 19.828H103.794V28H102.606L102.48 27.064H102.372C102.096 27.4 101.718 27.676 101.238 27.892C100.77 28.108 100.308 28.216 99.8519 28.216C97.9439 28.216 96.9899 27.052 96.9899 24.724V19.828H98.5379V24.382C98.5379 26.05 99.1379 26.884 100.338 26.884C100.686 26.884 101.046 26.794 101.418 26.614C101.79 26.434 102.066 26.218 102.246 25.966V19.828ZM108.729 21.088L108.711 25.84C108.711 26.632 109.011 27.028 109.611 27.028C110.031 27.028 110.445 26.908 110.853 26.668L111.393 27.496C110.733 27.988 110.019 28.234 109.251 28.234C107.859 28.234 107.163 27.472 107.163 25.948V21.088H105.957V19.828H107.181V18.154L108.729 17.344V19.828H111.177V21.088H108.729Z" fill="#2E2E2E"/>
<path d="M430.961 17.992H427.541V16.606H436.325V17.992H432.635V28H430.961V17.992ZM442.452 19.828H444V28H442.812L442.686 27.064H442.578C442.302 27.4 441.924 27.676 441.444 27.892C440.976 28.108 440.514 28.216 440.058 28.216C438.15 28.216 437.196 27.052 437.196 24.724V19.828H438.744V24.382C438.744 26.05 439.344 26.884 440.544 26.884C440.892 26.884 441.252 26.794 441.624 26.614C441.996 26.434 442.272 26.218 442.452 25.966V19.828ZM448.395 19.828V28H446.847V19.828H448.395ZM446.721 17.308C446.721 17.056 446.811 16.84 446.991 16.66C447.171 16.48 447.387 16.39 447.639 16.39C447.891 16.39 448.107 16.48 448.287 16.66C448.479 16.84 448.575 17.056 448.575 17.308C448.575 17.572 448.485 17.794 448.305 17.974C448.125 18.154 447.903 18.244 447.639 18.244C447.375 18.244 447.153 18.154 446.973 17.974C446.805 17.794 446.721 17.572 446.721 17.308ZM453.365 21.088L453.347 25.84C453.347 26.632 453.647 27.028 454.247 27.028C454.667 27.028 455.081 26.908 455.489 26.668L456.029 27.496C455.369 27.988 454.655 28.234 453.887 28.234C452.495 28.234 451.799 27.472 451.799 25.948V21.088H450.593V19.828H451.817V18.154L453.365 17.344V19.828H455.813V21.088H453.365ZM459.768 19.828V28H458.22V19.828H459.768ZM458.094 17.308C458.094 17.056 458.184 16.84 458.364 16.66C458.544 16.48 458.76 16.39 459.012 16.39C459.264 16.39 459.48 16.48 459.66 16.66C459.852 16.84 459.948 17.056 459.948 17.308C459.948 17.572 459.858 17.794 459.678 17.974C459.498 18.154 459.276 18.244 459.012 18.244C458.748 18.244 458.526 18.154 458.346 17.974C458.178 17.794 458.094 17.572 458.094 17.308ZM466.07 28.216C464.834 28.216 463.832 27.754 463.064 26.83C462.404 26.038 462.074 25.072 462.074 23.932C462.074 22.612 462.476 21.544 463.28 20.728C464 19.984 464.924 19.612 466.052 19.612C467.348 19.612 468.368 20.086 469.112 21.034C469.724 21.826 470.03 22.792 470.03 23.932C470.03 25.24 469.61 26.308 468.77 27.136C468.026 27.856 467.126 28.216 466.07 28.216ZM466.034 26.992C466.754 26.992 467.324 26.716 467.744 26.164C468.176 25.612 468.392 24.868 468.392 23.932C468.392 22.96 468.164 22.186 467.708 21.61C467.288 21.07 466.736 20.8 466.052 20.8C465.356 20.8 464.792 21.088 464.36 21.664C463.928 22.24 463.712 22.996 463.712 23.932C463.712 24.94 463.952 25.72 464.432 26.272C464.852 26.752 465.386 26.992 466.034 26.992ZM473.74 20.638H473.83C474.442 19.954 475.294 19.612 476.386 19.612C478.39 19.612 479.392 20.788 479.392 23.14V28H477.844V23.23C477.844 21.706 477.172 20.944 475.828 20.944C475.456 20.944 475.078 21.034 474.694 21.214C474.31 21.394 474.028 21.61 473.848 21.862V28H472.3V19.828H473.596L473.74 20.638Z" fill="#2E2E2E"/>
<path d="M248.711 28V16.624C249.767 16.468 250.739 16.39 251.627 16.39C254.387 16.39 255.767 17.554 255.767 19.882C255.767 21.394 255.143 22.462 253.895 23.086L256.163 28H254.471L252.419 23.5C252.263 23.524 252.035 23.536 251.735 23.536C251.315 23.536 250.865 23.494 250.385 23.41V28H248.711ZM250.385 17.848V22.06C250.865 22.144 251.315 22.186 251.735 22.186C253.247 22.186 254.003 21.418 254.003 19.882C254.003 18.442 253.241 17.722 251.717 17.722C251.165 17.722 250.721 17.764 250.385 17.848ZM264.214 28H263.008L262.828 27.154C262.18 27.862 261.304 28.216 260.2 28.216C259.36 28.216 258.694 27.988 258.202 27.532C257.722 27.064 257.482 26.434 257.482 25.642C257.482 24.742 257.848 24.052 258.58 23.572C259.324 23.08 260.374 22.834 261.73 22.834H262.684V22.744C262.684 21.496 262.054 20.872 260.794 20.872C259.99 20.872 259.24 21.13 258.544 21.646L258.076 20.818C259.012 20.014 260.086 19.612 261.298 19.612C263.242 19.612 264.214 20.77 264.214 23.086V28ZM262.666 23.878H261.874C260.026 23.878 259.102 24.43 259.102 25.534C259.102 25.99 259.234 26.35 259.498 26.614C259.774 26.878 260.14 27.01 260.596 27.01C261.052 27.01 261.478 26.896 261.874 26.668C262.27 26.428 262.534 26.128 262.666 25.768V23.878ZM268.374 20.638H268.464C269.076 19.954 269.928 19.612 271.02 19.612C273.024 19.612 274.026 20.788 274.026 23.14V28H272.478V23.23C272.478 21.706 271.806 20.944 270.462 20.944C270.09 20.944 269.712 21.034 269.328 21.214C268.944 21.394 268.662 21.61 268.482 21.862V28H266.934V19.828H268.23L268.374 20.638ZM283.169 19.828L279.461 23.05L283.277 28H281.459L278.291 23.68V28H276.743V17.218L278.291 16.39V22.312L281.045 19.828H283.169Z" fill="#2E2E2E"/>
<path d="M620.711 28V16.624C621.767 16.468 622.739 16.39 623.627 16.39C626.387 16.39 627.767 17.554 627.767 19.882C627.767 21.394 627.143 22.462 625.895 23.086L628.163 28H626.471L624.419 23.5C624.263 23.524 624.035 23.536 623.735 23.536C623.315 23.536 622.865 23.494 622.385 23.41V28H620.711ZM622.385 17.848V22.06C622.865 22.144 623.315 22.186 623.735 22.186C625.247 22.186 626.003 21.418 626.003 19.882C626.003 18.442 625.241 17.722 623.717 17.722C623.165 17.722 622.721 17.764 622.385 17.848ZM636.706 24.436H630.946C631.03 25.228 631.318 25.858 631.81 26.326C632.302 26.782 632.932 27.01 633.7 27.01C634.444 27.01 635.2 26.782 635.968 26.326L636.436 27.208C635.596 27.88 634.6 28.216 633.448 28.216C632.128 28.216 631.078 27.802 630.298 26.974C629.578 26.206 629.218 25.198 629.218 23.95C629.218 22.678 629.608 21.616 630.388 20.764C631.096 19.996 631.966 19.612 632.998 19.612C634.258 19.612 635.224 20.086 635.896 21.034C636.436 21.79 636.706 22.744 636.706 23.896V24.436ZM630.892 23.23H635.122C635.098 22.45 634.9 21.85 634.528 21.43C634.168 20.998 633.676 20.782 633.052 20.782C632.452 20.782 631.954 21.004 631.558 21.448C631.174 21.892 630.952 22.486 630.892 23.23ZM644.495 27.226V27.136C643.955 27.856 643.181 28.216 642.173 28.216C640.961 28.216 640.007 27.772 639.311 26.884C638.723 26.14 638.429 25.204 638.429 24.076C638.429 22.588 638.861 21.436 639.725 20.62C640.421 19.948 641.267 19.612 642.263 19.612C642.743 19.612 643.217 19.72 643.685 19.936C644.153 20.14 644.477 20.386 644.657 20.674L644.837 19.828H646.043V27.226C646.043 30.034 644.813 31.438 642.353 31.438C641.285 31.438 640.247 31.042 639.239 30.25L639.707 29.422C640.439 29.926 641.255 30.178 642.155 30.178C643.715 30.178 644.495 29.194 644.495 27.226ZM644.495 25.426V22.186C644.411 21.814 644.171 21.49 643.775 21.214C643.391 20.938 642.977 20.8 642.533 20.8C641.801 20.8 641.207 21.088 640.751 21.664C640.295 22.24 640.067 22.984 640.067 23.896C640.067 24.94 640.307 25.738 640.787 26.29C641.207 26.77 641.747 27.01 642.407 27.01C642.863 27.01 643.289 26.86 643.685 26.56C644.093 26.248 644.363 25.87 644.495 25.426ZM650.432 19.828V28H648.884V19.828H650.432ZM648.758 17.308C648.758 17.056 648.848 16.84 649.028 16.66C649.208 16.48 649.424 16.39 649.676 16.39C649.928 16.39 650.144 16.48 650.324 16.66C650.516 16.84 650.612 17.056 650.612 17.308C650.612 17.572 650.522 17.794 650.342 17.974C650.162 18.154 649.94 18.244 649.676 18.244C649.412 18.244 649.19 18.154 649.01 17.974C648.842 17.794 648.758 17.572 648.758 17.308ZM657.724 21.304C657.124 20.968 656.464 20.8 655.744 20.8C655.348 20.8 655.03 20.896 654.79 21.088C654.55 21.268 654.43 21.514 654.43 21.826C654.43 22.174 654.538 22.444 654.754 22.636C654.982 22.816 655.402 22.99 656.014 23.158C656.938 23.422 657.58 23.704 657.94 24.004C658.432 24.424 658.678 25.018 658.678 25.786C658.678 26.518 658.408 27.106 657.868 27.55C657.34 27.994 656.638 28.216 655.762 28.216C654.598 28.216 653.59 27.892 652.738 27.244L653.278 26.38C653.95 26.8 654.7 27.01 655.528 27.01C656.632 27.01 657.184 26.59 657.184 25.75C657.184 25.39 657.064 25.12 656.824 24.94C656.596 24.748 656.152 24.568 655.492 24.4C653.74 23.968 652.864 23.122 652.864 21.862C652.864 21.214 653.122 20.68 653.638 20.26C654.166 19.828 654.826 19.612 655.618 19.612C656.626 19.612 657.508 19.894 658.264 20.458L657.724 21.304ZM663.066 21.088L663.048 25.84C663.048 26.632 663.348 27.028 663.948 27.028C664.368 27.028 664.782 26.908 665.19 26.668L665.73 27.496C665.07 27.988 664.356 28.234 663.588 28.234C662.196 28.234 661.5 27.472 661.5 25.948V21.088H660.294V19.828H661.518V18.154L663.066 17.344V19.828H665.514V21.088H663.066ZM669.361 20.638H669.433C669.997 19.954 670.657 19.612 671.413 19.612C672.373 19.612 673.081 19.984 673.537 20.728L672.241 21.538C671.845 21.142 671.413 20.944 670.945 20.944C670.345 20.944 669.841 21.25 669.433 21.862V28H667.885V19.828H669.217L669.361 20.638ZM681.056 28H679.85L679.67 27.154C679.022 27.862 678.146 28.216 677.042 28.216C676.202 28.216 675.536 27.988 675.044 27.532C674.564 27.064 674.324 26.434 674.324 25.642C674.324 24.742 674.69 24.052 675.422 23.572C676.166 23.08 677.216 22.834 678.572 22.834H679.526V22.744C679.526 21.496 678.896 20.872 677.636 20.872C676.832 20.872 676.082 21.13 675.386 21.646L674.918 20.818C675.854 20.014 676.928 19.612 678.14 19.612C680.084 19.612 681.056 20.77 681.056 23.086V28ZM679.508 23.878H678.716C676.868 23.878 675.944 24.43 675.944 25.534C675.944 25.99 676.076 26.35 676.34 26.614C676.616 26.878 676.982 27.01 677.438 27.01C677.894 27.01 678.32 26.896 678.716 26.668C679.112 26.428 679.376 26.128 679.508 25.768V23.878ZM685.9 21.088L685.882 25.84C685.882 26.632 686.182 27.028 686.782 27.028C687.202 27.028 687.616 26.908 688.024 26.668L688.564 27.496C687.904 27.988 687.19 28.234 686.422 28.234C685.03 28.234 684.334 27.472 684.334 25.948V21.088H683.128V19.828H684.352V18.154L685.9 17.344V19.828H688.348V21.088H685.9ZM692.303 19.828V28H690.755V19.828H692.303ZM690.629 17.308C690.629 17.056 690.719 16.84 690.899 16.66C691.079 16.48 691.295 16.39 691.547 16.39C691.799 16.39 692.015 16.48 692.195 16.66C692.387 16.84 692.483 17.056 692.483 17.308C692.483 17.572 692.393 17.794 692.213 17.974C692.033 18.154 691.811 18.244 691.547 18.244C691.283 18.244 691.061 18.154 690.881 17.974C690.713 17.794 690.629 17.572 690.629 17.308ZM698.605 28.216C697.369 28.216 696.367 27.754 695.599 26.83C694.939 26.038 694.609 25.072 694.609 23.932C694.609 22.612 695.011 21.544 695.815 20.728C696.535 19.984 697.459 19.612 698.587 19.612C699.883 19.612 700.903 20.086 701.647 21.034C702.259 21.826 702.565 22.792 702.565 23.932C702.565 25.24 702.145 26.308 701.305 27.136C700.561 27.856 699.661 28.216 698.605 28.216ZM698.569 26.992C699.289 26.992 699.859 26.716 700.279 26.164C700.711 25.612 700.927 24.868 700.927 23.932C700.927 22.96 700.699 22.186 700.243 21.61C699.823 21.07 699.271 20.8 698.587 20.8C697.891 20.8 697.327 21.088 696.895 21.664C696.463 22.24 696.247 22.996 696.247 23.932C696.247 24.94 696.487 25.72 696.967 26.272C697.387 26.752 697.921 26.992 698.569 26.992ZM706.275 20.638H706.365C706.977 19.954 707.829 19.612 708.921 19.612C710.925 19.612 711.927 20.788 711.927 23.14V28H710.379V23.23C710.379 21.706 709.707 20.944 708.363 20.944C707.991 20.944 707.613 21.034 707.229 21.214C706.845 21.394 706.563 21.61 706.383 21.862V28H704.835V19.828H706.131L706.275 20.638ZM724.712 28L724.478 27.136C723.938 27.856 723.128 28.216 722.048 28.216C720.836 28.216 719.882 27.772 719.186 26.884C718.598 26.14 718.304 25.204 718.304 24.076C718.304 22.588 718.736 21.436 719.6 20.62C720.296 19.948 721.142 19.612 722.138 19.612C723.05 19.612 723.794 19.9 724.37 20.476V17.29L725.918 16.426V28H724.712ZM724.37 25.426V22.186C724.286 21.814 724.046 21.49 723.65 21.214C723.266 20.938 722.852 20.8 722.408 20.8C721.676 20.8 721.082 21.088 720.626 21.664C720.17 22.24 719.942 22.984 719.942 23.896C719.942 24.94 720.182 25.738 720.662 26.29C721.082 26.77 721.622 27.01 722.282 27.01C722.738 27.01 723.164 26.86 723.56 26.56C723.968 26.248 724.238 25.87 724.37 25.426ZM734.915 28H733.709L733.529 27.154C732.881 27.862 732.005 28.216 730.901 28.216C730.061 28.216 729.395 27.988 728.903 27.532C728.423 27.064 728.183 26.434 728.183 25.642C728.183 24.742 728.549 24.052 729.281 23.572C730.025 23.08 731.075 22.834 732.431 22.834H733.385V22.744C733.385 21.496 732.755 20.872 731.495 20.872C730.691 20.872 729.941 21.13 729.245 21.646L728.777 20.818C729.713 20.014 730.787 19.612 731.999 19.612C733.943 19.612 734.915 20.77 734.915 23.086V28ZM733.367 23.878H732.575C730.727 23.878 729.803 24.43 729.803 25.534C729.803 25.99 729.935 26.35 730.199 26.614C730.475 26.878 730.841 27.01 731.297 27.01C731.753 27.01 732.179 26.896 732.575 26.668C732.971 26.428 733.235 26.128 733.367 25.768V23.878ZM739.759 21.088L739.741 25.84C739.741 26.632 740.041 27.028 740.641 27.028C741.061 27.028 741.475 26.908 741.883 26.668L742.423 27.496C741.763 27.988 741.049 28.234 740.281 28.234C738.889 28.234 738.193 27.472 738.193 25.948V21.088H736.987V19.828H738.211V18.154L739.759 17.344V19.828H742.207V21.088H739.759ZM751.351 24.436H745.591C745.675 25.228 745.963 25.858 746.455 26.326C746.947 26.782 747.577 27.01 748.345 27.01C749.089 27.01 749.845 26.782 750.613 26.326L751.081 27.208C750.241 27.88 749.245 28.216 748.093 28.216C746.773 28.216 745.723 27.802 744.943 26.974C744.223 26.206 743.863 25.198 743.863 23.95C743.863 22.678 744.253 21.616 745.033 20.764C745.741 19.996 746.611 19.612 747.643 19.612C748.903 19.612 749.869 20.086 750.541 21.034C751.081 21.79 751.351 22.744 751.351 23.896V24.436ZM745.537 23.23H749.767C749.743 22.45 749.545 21.85 749.173 21.43C748.813 20.998 748.321 20.782 747.697 20.782C747.097 20.782 746.599 21.004 746.203 21.448C745.819 21.892 745.597 22.486 745.537 23.23ZM758.06 21.304C757.46 20.968 756.8 20.8 756.08 20.8C755.684 20.8 755.366 20.896 755.126 21.088C754.886 21.268 754.766 21.514 754.766 21.826C754.766 22.174 754.874 22.444 755.09 22.636C755.318 22.816 755.738 22.99 756.35 23.158C757.274 23.422 757.916 23.704 758.276 24.004C758.768 24.424 759.014 25.018 759.014 25.786C759.014 26.518 758.744 27.106 758.204 27.55C757.676 27.994 756.974 28.216 756.098 28.216C754.934 28.216 753.926 27.892 753.074 27.244L753.614 26.38C754.286 26.8 755.036 27.01 755.864 27.01C756.968 27.01 757.52 26.59 757.52 25.75C757.52 25.39 757.4 25.12 757.16 24.94C756.932 24.748 756.488 24.568 755.828 24.4C754.076 23.968 753.2 23.122 753.2 21.862C753.2 21.214 753.458 20.68 753.974 20.26C754.502 19.828 755.162 19.612 755.954 19.612C756.962 19.612 757.844 19.894 758.6 20.458L758.06 21.304Z" fill="#2E2E2E"/>
<path d="M928.877 16.606H930.677L933.089 25.444L935.429 16.606H937.193L933.863 28H932.405C931.553 25.408 930.677 22.414 929.777 19.018C928.877 22.414 928.001 25.408 927.149 28H925.691L922.361 16.606H924.125L926.465 25.444L928.877 16.606ZM945.173 24.436H939.413C939.497 25.228 939.785 25.858 940.277 26.326C940.769 26.782 941.399 27.01 942.167 27.01C942.911 27.01 943.667 26.782 944.435 26.326L944.903 27.208C944.063 27.88 943.067 28.216 941.915 28.216C940.595 28.216 939.545 27.802 938.765 26.974C938.045 26.206 937.685 25.198 937.685 23.95C937.685 22.678 938.075 21.616 938.855 20.764C939.563 19.996 940.433 19.612 941.465 19.612C942.725 19.612 943.691 20.086 944.363 21.034C944.903 21.79 945.173 22.744 945.173 23.896V24.436ZM939.359 23.23H943.589C943.565 22.45 943.367 21.85 942.995 21.43C942.635 20.998 942.143 20.782 941.519 20.782C940.919 20.782 940.421 21.004 940.025 21.448C939.641 21.892 939.419 22.486 939.359 23.23ZM948.642 28H947.436V17.218L948.984 16.39V20.692C949.524 19.972 950.298 19.612 951.306 19.612C952.518 19.612 953.472 20.056 954.168 20.944C954.756 21.688 955.05 22.624 955.05 23.752C955.05 25.24 954.618 26.392 953.754 27.208C953.058 27.88 952.212 28.216 951.216 28.216C950.736 28.216 950.262 28.114 949.794 27.91C949.326 27.694 949.002 27.442 948.822 27.154L948.642 28ZM948.984 22.402V25.642C949.068 26.014 949.302 26.338 949.686 26.614C950.07 26.89 950.484 27.028 950.928 27.028C951.66 27.028 952.254 26.74 952.71 26.164C953.166 25.588 953.394 24.844 953.394 23.932C953.394 22.888 953.154 22.09 952.674 21.538C952.254 21.058 951.714 20.818 951.054 20.818C950.598 20.818 950.172 20.968 949.776 21.268C949.38 21.568 949.116 21.946 948.984 22.402ZM961.497 21.304C960.897 20.968 960.237 20.8 959.517 20.8C959.121 20.8 958.803 20.896 958.563 21.088C958.323 21.268 958.203 21.514 958.203 21.826C958.203 22.174 958.311 22.444 958.527 22.636C958.755 22.816 959.175 22.99 959.787 23.158C960.711 23.422 961.353 23.704 961.713 24.004C962.205 24.424 962.451 25.018 962.451 25.786C962.451 26.518 962.181 27.106 961.641 27.55C961.113 27.994 960.411 28.216 959.535 28.216C958.371 28.216 957.363 27.892 956.511 27.244L957.051 26.38C957.723 26.8 958.473 27.01 959.301 27.01C960.405 27.01 960.957 26.59 960.957 25.75C960.957 25.39 960.837 25.12 960.597 24.94C960.369 24.748 959.925 24.568 959.265 24.4C957.513 23.968 956.637 23.122 956.637 21.862C956.637 21.214 956.895 20.68 957.411 20.26C957.939 19.828 958.599 19.612 959.391 19.612C960.399 19.612 961.281 19.894 962.037 20.458L961.497 21.304ZM966.3 19.828V28H964.752V19.828H966.3ZM964.626 17.308C964.626 17.056 964.716 16.84 964.896 16.66C965.076 16.48 965.292 16.39 965.544 16.39C965.796 16.39 966.012 16.48 966.192 16.66C966.384 16.84 966.48 17.056 966.48 17.308C966.48 17.572 966.39 17.794 966.21 17.974C966.03 18.154 965.808 18.244 965.544 18.244C965.28 18.244 965.058 18.154 964.878 17.974C964.71 17.794 964.626 17.572 964.626 17.308ZM971.269 21.088L971.251 25.84C971.251 26.632 971.551 27.028 972.151 27.028C972.571 27.028 972.985 26.908 973.393 26.668L973.933 27.496C973.273 27.988 972.559 28.234 971.791 28.234C970.399 28.234 969.703 27.472 969.703 25.948V21.088H968.497V19.828H969.721V18.154L971.269 17.344V19.828H973.717V21.088H971.269ZM982.861 24.436H977.101C977.185 25.228 977.473 25.858 977.965 26.326C978.457 26.782 979.087 27.01 979.855 27.01C980.599 27.01 981.355 26.782 982.123 26.326L982.591 27.208C981.751 27.88 980.755 28.216 979.603 28.216C978.283 28.216 977.233 27.802 976.453 26.974C975.733 26.206 975.373 25.198 975.373 23.95C975.373 22.678 975.763 21.616 976.543 20.764C977.251 19.996 978.121 19.612 979.153 19.612C980.413 19.612 981.379 20.086 982.051 21.034C982.591 21.79 982.861 22.744 982.861 23.896V24.436ZM977.047 23.23H981.277C981.253 22.45 981.055 21.85 980.683 21.43C980.323 20.998 979.831 20.782 979.207 20.782C978.607 20.782 978.109 21.004 977.713 21.448C977.329 21.892 977.107 22.486 977.047 23.23Z" fill="#2E2E2E"/>
<path d="M1134.71 28V16.624C1135.77 16.468 1136.74 16.39 1137.63 16.39C1140.39 16.39 1141.77 17.554 1141.77 19.882C1141.77 21.142 1141.35 22.096 1140.51 22.744C1139.82 23.272 1138.95 23.536 1137.88 23.536C1137.36 23.536 1136.86 23.494 1136.38 23.41V28H1134.71ZM1136.38 17.848V22.06C1136.86 22.144 1137.36 22.186 1137.88 22.186C1139.29 22.186 1140 21.418 1140 19.882C1140 18.442 1139.24 17.722 1137.72 17.722C1137.16 17.722 1136.72 17.764 1136.38 17.848ZM1145.62 16.39V20.728C1146.29 19.984 1147.14 19.612 1148.16 19.612C1150.16 19.612 1151.17 20.788 1151.17 23.14V28H1149.62V23.23C1149.62 21.706 1148.95 20.944 1147.6 20.944C1147.23 20.944 1146.85 21.034 1146.47 21.214C1146.08 21.394 1145.8 21.61 1145.62 21.862V28H1144.07V17.218L1145.62 16.39ZM1157.34 28.216C1156.1 28.216 1155.1 27.754 1154.33 26.83C1153.67 26.038 1153.34 25.072 1153.34 23.932C1153.34 22.612 1153.75 21.544 1154.55 20.728C1155.27 19.984 1156.19 19.612 1157.32 19.612C1158.62 19.612 1159.64 20.086 1160.38 21.034C1160.99 21.826 1161.3 22.792 1161.3 23.932C1161.3 25.24 1160.88 26.308 1160.04 27.136C1159.3 27.856 1158.4 28.216 1157.34 28.216ZM1157.3 26.992C1158.02 26.992 1158.59 26.716 1159.01 26.164C1159.45 25.612 1159.66 24.868 1159.66 23.932C1159.66 22.96 1159.43 22.186 1158.98 21.61C1158.56 21.07 1158.01 20.8 1157.32 20.8C1156.63 20.8 1156.06 21.088 1155.63 21.664C1155.2 22.24 1154.98 22.996 1154.98 23.932C1154.98 24.94 1155.22 25.72 1155.7 26.272C1156.12 26.752 1156.66 26.992 1157.3 26.992ZM1165.01 20.638H1165.1C1165.71 19.954 1166.56 19.612 1167.66 19.612C1169.66 19.612 1170.66 20.788 1170.66 23.14V28H1169.11V23.23C1169.11 21.706 1168.44 20.944 1167.1 20.944C1166.73 20.944 1166.35 21.034 1165.96 21.214C1165.58 21.394 1165.3 21.61 1165.12 21.862V28H1163.57V19.828H1164.87L1165.01 20.638ZM1180.33 24.436H1174.57C1174.65 25.228 1174.94 25.858 1175.43 26.326C1175.92 26.782 1176.55 27.01 1177.32 27.01C1178.06 27.01 1178.82 26.782 1179.59 26.326L1180.06 27.208C1179.22 27.88 1178.22 28.216 1177.07 28.216C1175.75 28.216 1174.7 27.802 1173.92 26.974C1173.2 26.206 1172.84 25.198 1172.84 23.95C1172.84 22.678 1173.23 21.616 1174.01 20.764C1174.72 19.996 1175.59 19.612 1176.62 19.612C1177.88 19.612 1178.84 20.086 1179.52 21.034C1180.06 21.79 1180.33 22.744 1180.33 23.896V24.436ZM1174.51 23.23H1178.74C1178.72 22.45 1178.52 21.85 1178.15 21.43C1177.79 20.998 1177.3 20.782 1176.67 20.782C1176.07 20.782 1175.57 21.004 1175.18 21.448C1174.79 21.892 1174.57 22.486 1174.51 23.23ZM1188.23 20.638H1188.32C1188.93 19.954 1189.78 19.612 1190.88 19.612C1192.88 19.612 1193.88 20.788 1193.88 23.14V28H1192.33V23.23C1192.33 21.706 1191.66 20.944 1190.32 20.944C1189.95 20.944 1189.57 21.034 1189.18 21.214C1188.8 21.394 1188.52 21.61 1188.34 21.862V28H1186.79V19.828H1188.09L1188.23 20.638ZM1201.85 19.828H1203.4V28H1202.21L1202.09 27.064H1201.98C1201.7 27.4 1201.33 27.676 1200.85 27.892C1200.38 28.108 1199.92 28.216 1199.46 28.216C1197.55 28.216 1196.6 27.052 1196.6 24.724V19.828H1198.15V24.382C1198.15 26.05 1198.75 26.884 1199.95 26.884C1200.29 26.884 1200.65 26.794 1201.03 26.614C1201.4 26.434 1201.67 26.218 1201.85 25.966V19.828ZM1207.65 20.638H1207.74C1208.36 19.954 1209.2 19.612 1210.28 19.612C1211.64 19.612 1212.52 20.098 1212.93 21.07C1213.62 20.098 1214.61 19.612 1215.9 19.612C1217.87 19.612 1218.85 20.776 1218.85 23.104V28H1217.3V23.446C1217.3 22.546 1217.14 21.904 1216.82 21.52C1216.5 21.136 1215.98 20.944 1215.23 20.944C1214.49 20.944 1213.81 21.274 1213.2 21.934C1213.27 22.27 1213.31 22.66 1213.31 23.104V28H1211.76V23.32C1211.76 22.492 1211.59 21.892 1211.25 21.52C1210.93 21.136 1210.4 20.944 1209.67 20.944C1209.32 20.944 1208.96 21.034 1208.59 21.214C1208.22 21.394 1207.94 21.61 1207.76 21.862V28H1206.21V19.828H1207.51L1207.65 20.638ZM1222.77 28H1221.56V17.218L1223.11 16.39V20.692C1223.65 19.972 1224.42 19.612 1225.43 19.612C1226.64 19.612 1227.6 20.056 1228.29 20.944C1228.88 21.688 1229.17 22.624 1229.17 23.752C1229.17 25.24 1228.74 26.392 1227.88 27.208C1227.18 27.88 1226.34 28.216 1225.34 28.216C1224.86 28.216 1224.39 28.114 1223.92 27.91C1223.45 27.694 1223.13 27.442 1222.95 27.154L1222.77 28ZM1223.11 22.402V25.642C1223.19 26.014 1223.43 26.338 1223.81 26.614C1224.19 26.89 1224.61 27.028 1225.05 27.028C1225.78 27.028 1226.38 26.74 1226.83 26.164C1227.29 25.588 1227.52 24.844 1227.52 23.932C1227.52 22.888 1227.28 22.09 1226.8 21.538C1226.38 21.058 1225.84 20.818 1225.18 20.818C1224.72 20.818 1224.3 20.968 1223.9 21.268C1223.5 21.568 1223.24 21.946 1223.11 22.402ZM1238.39 24.436H1232.63C1232.71 25.228 1233 25.858 1233.49 26.326C1233.98 26.782 1234.61 27.01 1235.38 27.01C1236.12 27.01 1236.88 26.782 1237.65 26.326L1238.12 27.208C1237.28 27.88 1236.28 28.216 1235.13 28.216C1233.81 28.216 1232.76 27.802 1231.98 26.974C1231.26 26.206 1230.9 25.198 1230.9 23.95C1230.9 22.678 1231.29 21.616 1232.07 20.764C1232.78 19.996 1233.65 19.612 1234.68 19.612C1235.94 19.612 1236.9 20.086 1237.58 21.034C1238.12 21.79 1238.39 22.744 1238.39 23.896V24.436ZM1232.57 23.23H1236.8C1236.78 22.45 1236.58 21.85 1236.21 21.43C1235.85 20.998 1235.36 20.782 1234.73 20.782C1234.13 20.782 1233.63 21.004 1233.24 21.448C1232.85 21.892 1232.63 22.486 1232.57 23.23ZM1242.13 20.638H1242.2C1242.76 19.954 1243.42 19.612 1244.18 19.612C1245.14 19.612 1245.85 19.984 1246.3 20.728L1245.01 21.538C1244.61 21.142 1244.18 20.944 1243.71 20.944C1243.11 20.944 1242.61 21.25 1242.2 21.862V28H1240.65V19.828H1241.98L1242.13 20.638Z" fill="#2E2E2E"/>
<path d="M40 21C40 35.7778 21 48.4444 21 48.4444C21 48.4444 2 35.7778 2 21C2 15.9609 4.00178 11.1282 7.56497 7.56497C11.1282 4.00178 15.9609 2 21 2C26.0391 2 30.8718 4.00178 34.435 7.56497C37.9982 11.1282 40 15.9609 40 21Z" stroke="#2E2E2E" stroke-width="4" stroke-linecap="round" stroke-linejoin="round"/>
<path d="M21 27.3333C24.4978 27.3333 27.3334 24.4978 27.3334 21C27.3334 17.5022 24.4978 14.6666 21 14.6666C17.5022 14.6666 14.6667 17.5022 14.6667 21C14.6667 24.4978 17.5022 27.3333 21 27.3333Z" stroke="#2E2E2E" stroke-width="4" stroke-linecap="round" stroke-linejoin="round"/>
<path d="M385.091 17.3333C394.48 17.3333 402.091 14.7963 402.091 11.6667C402.091 8.53705 394.48 6 385.091 6C375.702 6 368.091 8.53705 368.091 11.6667C368.091 14.7963 375.702 17.3333 385.091 17.3333Z" stroke="#2E2E2E" stroke-width="4" stroke-linecap="round" stroke-linejoin="round"/>
<path d="M402.091 24.8889C402.091 28.0245 394.535 30.5556 385.091 30.5556C375.646 30.5556 368.091 28.0245 368.091 24.8889" stroke="#2E2E2E" stroke-width="4" stroke-linecap="round" stroke-linejoin="round"/>
<path d="M368.091 11.6666V38.1111C368.091 41.2466 375.646 43.7777 385.091 43.7777C394.535 43.7777 402.091 41.2466 402.091 38.1111V11.6666" stroke="#2E2E2E" stroke-width="4" stroke-linecap="round" stroke-linejoin="round"/>
<path d="M207.545 31.0909C215.579 31.0909 222.091 24.5787 222.091 16.5455C222.091 8.51222 215.579 2 207.545 2C199.512 2 193 8.51222 193 16.5455C193 24.5787 199.512 31.0909 207.545 31.0909Z" stroke="#2E2E2E" stroke-width="4" stroke-linecap="round" stroke-linejoin="round"/>
<path d="M199.67 28.7845L197.156 47.7143L207.545 41.4806L217.935 47.7143L215.421 28.7637" stroke="#2E2E2E" stroke-width="4" stroke-linecap="round" stroke-linejoin="round"/>
<path d="M586.591 9.75H590.341C591.335 9.75 592.289 10.1451 592.992 10.8483C593.696 11.5516 594.091 12.5054 594.091 13.5V39.75C594.091 40.7446 593.696 41.6984 592.992 42.4016C592.289 43.1049 591.335 43.5 590.341 43.5H567.841C566.846 43.5 565.892 43.1049 565.189 42.4016C564.486 41.6984 564.091 40.7446 564.091 39.75V13.5C564.091 12.5054 564.486 11.5516 565.189 10.8483C565.892 10.1451 566.846 9.75 567.841 9.75H571.591" stroke="#2E2E2E" stroke-width="4" stroke-linecap="round" stroke-linejoin="round"/>
<path d="M584.716 6H573.466C572.43 6 571.591 6.83947 571.591 7.875V11.625C571.591 12.6605 572.43 13.5 573.466 13.5H584.716C585.751 13.5 586.591 12.6605 586.591 11.625V7.875C586.591 6.83947 585.751 6 584.716 6Z" stroke="#2E2E2E" stroke-width="4" stroke-linecap="round" stroke-linejoin="round"/>
<path d="M878.591 43C888.808 43 897.091 34.7173 897.091 24.5C897.091 14.2827 888.808 6 878.591 6C868.374 6 860.091 14.2827 860.091 24.5C860.091 34.7173 868.374 43 878.591 43Z" stroke="#2E2E2E" stroke-width="4" stroke-linecap="round" stroke-linejoin="round"/>
<path d="M860.091 24.5H897.091" stroke="#2E2E2E" stroke-width="4" stroke-linecap="round" stroke-linejoin="round"/>
<path d="M878.591 6C883.218 11.066 885.848 17.6403 885.991 24.5C885.848 31.3597 883.218 37.934 878.591 43C873.963 37.934 871.334 31.3597 871.191 24.5C871.334 17.6403 873.963 11.066 878.591 6V6Z" stroke="#2E2E2E" stroke-width="4" stroke-linecap="round" stroke-linejoin="round"/>
<path d="M1108.09 33.7016V39.2716C1108.09 39.7887 1107.99 40.3005 1107.78 40.7743C1107.57 41.2481 1107.27 41.6734 1106.88 42.0229C1106.5 42.3725 1106.05 42.6386 1105.56 42.8043C1105.07 42.9699 1104.55 43.0315 1104.03 42.9849C1098.31 42.3641 1092.81 40.4119 1087.98 37.285C1083.48 34.4344 1079.67 30.631 1076.82 26.145C1073.67 21.3013 1071.72 15.7866 1071.11 10.0477C1071.06 9.53428 1071.12 9.01681 1071.29 8.52826C1071.45 8.0397 1071.72 7.59076 1072.06 7.21002C1072.41 6.82928 1072.84 6.52508 1073.31 6.31678C1073.78 6.10849 1074.29 6.00067 1074.81 6.00018H1080.39C1081.29 5.99131 1082.17 6.31039 1082.85 6.89794C1083.54 7.48549 1083.98 8.30142 1084.11 9.19364C1084.35 10.9762 1084.78 12.7264 1085.41 14.4109C1085.66 15.0754 1085.72 15.7976 1085.57 16.492C1085.42 17.1863 1085.08 17.8236 1084.57 18.3284L1082.21 20.6864C1084.86 25.3346 1088.72 29.1833 1093.37 31.8264L1095.74 29.4684C1096.24 28.9692 1096.88 28.6252 1097.58 28.4771C1098.27 28.329 1099 28.3831 1099.66 28.6329C1101.35 29.2615 1103.1 29.6975 1104.89 29.9326C1105.79 30.0598 1106.62 30.5141 1107.21 31.209C1107.8 31.904 1108.11 32.7911 1108.09 33.7016Z" stroke="#2E2E2E" stroke-width="4" stroke-linecap="round" stroke-linejoin="round"/>
</svg>
